<svg xmlns="http://www.w3.org/2000/svg" viewBox="0 0 900 430" width="900" height="430" role="img" aria-labelledby="t d" font-family="system-ui, -apple-system, 'Segoe UI', Roboto, Helvetica, Arial, sans-serif">
<title id="t">Anamorphic High-NA imaging halves the exposure field</title>
<desc id="d">A 6-inch reticle's 104 by 132 mm image area maps to a 26 by 33 mm full field at 4x reduction in both directions (0.33 NA systems). High-NA optics reduce 4x across the scan and 8x along the scan, so the same reticle area prints a 26 by 16.5 mm half field; larger dies must be stitched from two exposures.</desc>
<defs><marker id="arr-muted" viewBox="0 0 10 10" refX="9" refY="5" markerWidth="7" markerHeight="7" orient="auto-start-reverse"><path d="M0,0 L10,5 L0,10 z" fill="#898781"/></marker><marker id="arr-ink2" viewBox="0 0 10 10" refX="9" refY="5" markerWidth="7" markerHeight="7" orient="auto-start-reverse"><path d="M0,0 L10,5 L0,10 z" fill="#52514e"/></marker><marker id="arr-ink" viewBox="0 0 10 10" refX="9" refY="5" markerWidth="7" markerHeight="7" orient="auto-start-reverse"><path d="M0,0 L10,5 L0,10 z" fill="#0b0b0b"/></marker><marker id="arr-red" viewBox="0 0 10 10" refX="9" refY="5" markerWidth="7" markerHeight="7" orient="auto-start-reverse"><path d="M0,0 L10,5 L0,10 z" fill="#e34948"/></marker><marker id="arr-blue" viewBox="0 0 10 10" refX="9" refY="5" markerWidth="7" markerHeight="7" orient="auto-start-reverse"><path d="M0,0 L10,5 L0,10 z" fill="#2a78d6"/></marker><marker id="arr-orange" viewBox="0 0 10 10" refX="9" refY="5" markerWidth="7" markerHeight="7" orient="auto-start-reverse"><path d="M0,0 L10,5 L0,10 z" fill="#eb6834"/></marker><marker id="arr-aqua" viewBox="0 0 10 10" refX="9" refY="5" markerWidth="7" markerHeight="7" orient="auto-start-reverse"><path d="M0,0 L10,5 L0,10 z" fill="#1baf7a"/></marker><marker id="arr-violet" viewBox="0 0 10 10" refX="9" refY="5" markerWidth="7" markerHeight="7" orient="auto-start-reverse"><path d="M0,0 L10,5 L0,10 z" fill="#4a3aa7"/></marker><marker id="arr-green" viewBox="0 0 10 10" refX="9" refY="5" markerWidth="7" markerHeight="7" orient="auto-start-reverse"><path d="M0,0 L10,5 L0,10 z" fill="#008300"/></marker></defs>
<text x="178.4" y="40.0" font-size="14" text-anchor="middle" fill="#0b0b0b" font-weight="600">reticle image area</text>
<rect x="90.0" y="70.0" width="176.8" height="224.4" rx="4" fill="#dedcef" stroke="#4a3aa7" stroke-width="1.4"/>
<line x1="90.0" y1="316.4" x2="266.8" y2="316.4" stroke="#52514e" stroke-width="1.1" stroke-linecap="round" marker-end="url(#arr-ink2)" marker-start="url(#arr-ink2)"/>
<line x1="90.0" y1="310.4" x2="90.0" y2="322.4" stroke="#52514e" stroke-width="1.0" stroke-linecap="round"/>
<line x1="266.8" y1="310.4" x2="266.8" y2="322.4" stroke="#52514e" stroke-width="1.0" stroke-linecap="round"/>
<text x="178.4" y="333.4" font-size="13" text-anchor="middle" fill="#52514e" font-weight="400">104 mm</text>
<line x1="76.0" y1="70.0" x2="76.0" y2="294.4" stroke="#52514e" stroke-width="1.1" stroke-linecap="round" marker-end="url(#arr-ink2)" marker-start="url(#arr-ink2)"/>
<line x1="70.0" y1="70.0" x2="82.0" y2="70.0" stroke="#52514e" stroke-width="1.0" stroke-linecap="round"/>
<line x1="70.0" y1="294.4" x2="82.0" y2="294.4" stroke="#52514e" stroke-width="1.0" stroke-linecap="round"/>
<text x="66.0" y="186.5" font-size="13" text-anchor="end" fill="#52514e" font-weight="400">132 mm</text>
<line x1="296.8" y1="182.2" x2="386.8" y2="182.2" stroke="#898781" stroke-width="1.8" stroke-linecap="round" marker-end="url(#arr-muted)"/>
<text x="341.8" y="152.2" font-size="12" text-anchor="middle" fill="#52514e" font-weight="400">projection</text>
<text x="341.8" y="168.2" font-size="12" text-anchor="middle" fill="#52514e" font-weight="400">optics</text>
<text x="524.4" y="40.0" font-size="14" text-anchor="middle" fill="#0b0b0b" font-weight="600">0.33 NA: 4× / 4×</text>
<rect x="456.8" y="80.0" width="135.2" height="171.6" rx="3" fill="#d9e7f8" stroke="#2a78d6" stroke-width="1.4"/>
<text x="524.4" y="170.8" font-size="13" text-anchor="middle" fill="#0b0b0b" font-weight="400">full field</text>
<line x1="456.8" y1="273.6" x2="592.0" y2="273.6" stroke="#52514e" stroke-width="1.1" stroke-linecap="round" marker-end="url(#arr-ink2)" marker-start="url(#arr-ink2)"/>
<line x1="456.8" y1="267.6" x2="456.8" y2="279.6" stroke="#52514e" stroke-width="1.0" stroke-linecap="round"/>
<line x1="592.0" y1="267.6" x2="592.0" y2="279.6" stroke="#52514e" stroke-width="1.0" stroke-linecap="round"/>
<text x="524.4" y="290.6" font-size="13" text-anchor="middle" fill="#52514e" font-weight="400">26 mm</text>
<line x1="444.8" y1="80.0" x2="444.8" y2="251.6" stroke="#52514e" stroke-width="1.1" stroke-linecap="round" marker-end="url(#arr-ink2)" marker-start="url(#arr-ink2)"/>
<line x1="438.8" y1="80.0" x2="450.8" y2="80.0" stroke="#52514e" stroke-width="1.0" stroke-linecap="round"/>
<line x1="438.8" y1="251.6" x2="450.8" y2="251.6" stroke="#52514e" stroke-width="1.0" stroke-linecap="round"/>
<text x="434.8" y="170.1" font-size="13" text-anchor="end" fill="#52514e" font-weight="400">33 mm</text>
<text x="729.6" y="40.0" font-size="14" text-anchor="middle" fill="#0b0b0b" font-weight="600">0.55 NA: 4× / 8×</text>
<rect x="662.0" y="80.0" width="135.2" height="85.8" rx="3" fill="#fad9cc" stroke="#eb6834" stroke-width="1.4"/>
<rect x="662.0" y="165.8" width="135.2" height="85.8" rx="3" fill="none" stroke="#eb6834" stroke-width="1.2" stroke-dasharray="5 4"/>
<text x="729.6" y="127.9" font-size="13" text-anchor="middle" fill="#0b0b0b" font-weight="400">half field</text>
<text x="729.6" y="204.7" font-size="12" text-anchor="middle" fill="#52514e" font-weight="400">2nd exposure</text>
<text x="729.6" y="220.7" font-size="12" text-anchor="middle" fill="#52514e" font-weight="400">(stitched)</text>
<line x1="662.0" y1="273.6" x2="797.2" y2="273.6" stroke="#52514e" stroke-width="1.1" stroke-linecap="round" marker-end="url(#arr-ink2)" marker-start="url(#arr-ink2)"/>
<line x1="662.0" y1="267.6" x2="662.0" y2="279.6" stroke="#52514e" stroke-width="1.0" stroke-linecap="round"/>
<line x1="797.2" y1="267.6" x2="797.2" y2="279.6" stroke="#52514e" stroke-width="1.0" stroke-linecap="round"/>
<text x="729.6" y="290.6" font-size="13" text-anchor="middle" fill="#52514e" font-weight="400">26 mm</text>
<line x1="809.2" y1="80.0" x2="809.2" y2="165.8" stroke="#52514e" stroke-width="1.1" stroke-linecap="round" marker-end="url(#arr-ink2)" marker-start="url(#arr-ink2)"/>
<line x1="803.2" y1="80.0" x2="815.2" y2="80.0" stroke="#52514e" stroke-width="1.0" stroke-linecap="round"/>
<line x1="803.2" y1="165.8" x2="815.2" y2="165.8" stroke="#52514e" stroke-width="1.0" stroke-linecap="round"/>
<text x="819.2" y="127.2" font-size="13" text-anchor="start" fill="#52514e" font-weight="400">16.5 mm</text>
<text x="450.0" y="415.0" font-size="12" text-anchor="middle" fill="#52514e" font-weight="400">x = across the scan · y = scan direction (vertical here)</text>
</svg>
