<svg xmlns="http://www.w3.org/2000/svg" viewBox="0 0 900 470" width="900" height="470" role="img" aria-labelledby="t d" font-family="system-ui, -apple-system, 'Segoe UI', Roboto, 'Helvetica Neue', Arial, sans-serif">
<title id="t">Contact, proximity and projection printing</title>
<desc id="d">Three panels. Contact: the mask sits on the resist and prints a sharp copy but is damaged by the contact. Proximity: a gap g separates mask and resist; diffraction blurs the edges over roughly the square root of wavelength times gap. Projection: a lens images the mask onto the wafer with resolution k1 lambda over NA. Below each panel, the light intensity reaching the resist is plotted against the mask pattern.</desc>
<defs><marker id="a52514e" viewBox="0 0 10 10" refX="8" refY="5" markerWidth="6" markerHeight="6" orient="auto-start-reverse"><path d="M0,0 L10,5 L0,10 z" fill="#52514e"/></marker><marker id="a5b36c9" viewBox="0 0 10 10" refX="8" refY="5" markerWidth="6" markerHeight="6" orient="auto-start-reverse"><path d="M0,0 L10,5 L0,10 z" fill="#5b36c9"/></marker></defs>
<text x="190.0" y="30.0" font-size="19.0" text-anchor="middle" fill="#1d1c1a" font-weight="bold">Contact printing</text>
<line x1="100.0" y1="96.0" x2="100.0" y2="190.0" stroke="#5b36c9" stroke-width="2" stroke-linecap="round" marker-end="url(#a5b36c9)"/>
<line x1="130.0" y1="96.0" x2="130.0" y2="190.0" stroke="#5b36c9" stroke-width="2" stroke-linecap="round" marker-end="url(#a5b36c9)"/>
<line x1="160.0" y1="96.0" x2="160.0" y2="190.0" stroke="#5b36c9" stroke-width="2" stroke-linecap="round" marker-end="url(#a5b36c9)"/>
<line x1="190.0" y1="96.0" x2="190.0" y2="190.0" stroke="#5b36c9" stroke-width="2" stroke-linecap="round" marker-end="url(#a5b36c9)"/>
<line x1="220.0" y1="96.0" x2="220.0" y2="190.0" stroke="#5b36c9" stroke-width="2" stroke-linecap="round" marker-end="url(#a5b36c9)"/>
<line x1="250.0" y1="96.0" x2="250.0" y2="190.0" stroke="#5b36c9" stroke-width="2" stroke-linecap="round" marker-end="url(#a5b36c9)"/>
<line x1="280.0" y1="96.0" x2="280.0" y2="190.0" stroke="#5b36c9" stroke-width="2" stroke-linecap="round" marker-end="url(#a5b36c9)"/>
<rect x="90.0" y="216.0" width="200.0" height="24.0" rx="0" fill="#e3eefb" stroke="#2a78d6" stroke-width="1.5"/>
<rect x="90.0" y="240.0" width="27.0" height="6.0" rx="0" fill="#33322f" stroke="#52514e" stroke-width="1"/>
<rect x="143.0" y="240.0" width="34.0" height="6.0" rx="0" fill="#33322f" stroke="#52514e" stroke-width="1"/>
<rect x="203.0" y="240.0" width="34.0" height="6.0" rx="0" fill="#33322f" stroke="#52514e" stroke-width="1"/>
<rect x="263.0" y="240.0" width="27.0" height="6.0" rx="0" fill="#33322f" stroke="#52514e" stroke-width="1"/>
<rect x="80.0" y="246.0" width="220.0" height="12.0" rx="0" fill="#fbd5bf" stroke="#c8551f" stroke-width="1.2"/>
<rect x="80.0" y="258.0" width="220.0" height="22.0" rx="0" fill="#d6d4cc" stroke="#8a8780" stroke-width="1.2"/>
<text x="298.0" y="212.0" font-size="13.4" text-anchor="start" fill="#52514e" font-weight="normal">mask</text>
<text x="74.0" y="256.0" font-size="13.4" text-anchor="end" fill="#52514e" font-weight="normal">resist</text>
<text x="74.0" y="274.0" font-size="13.4" text-anchor="end" fill="#52514e" font-weight="normal">wafer</text>
<line x1="86.0" y1="360.0" x2="294.0" y2="360.0" stroke="#d9d8d2" stroke-width="1" stroke-linecap="round"/>
<polyline points="90.0,360.0 90.8,360.0 91.6,360.0 92.3,360.0 93.1,360.0 93.9,360.0 94.7,360.0 95.5,360.0 96.2,360.0 97.0,360.0 97.8,360.0 98.6,360.0 99.4,360.0 100.2,360.0 100.9,360.0 101.7,360.0 102.5,360.0 103.3,360.0 104.1,360.0 104.8,360.0 105.6,360.0 106.4,360.0 107.2,360.0 108.0,360.0 108.8,360.0 109.5,360.0 110.3,360.0 111.1,360.0 111.9,360.0 112.7,360.0 113.4,360.0 114.2,360.0 115.0,360.0 115.8,360.0 116.6,360.0 117.3,322.0 118.1,322.0 118.9,322.0 119.7,322.0 120.5,322.0 121.2,322.0 122.0,322.0 122.8,322.0 123.6,322.0 124.4,322.0 125.2,322.0 125.9,322.0 126.7,322.0 127.5,322.0 128.3,322.0 129.1,322.0 129.8,322.0 130.6,322.0 131.4,322.0 132.2,322.0 133.0,322.0 133.8,322.0 134.5,322.0 135.3,322.0 136.1,322.0 136.9,322.0 137.7,322.0 138.4,322.0 139.2,322.0 140.0,322.0 140.8,322.0 141.6,322.0 142.3,322.0 143.1,360.0 143.9,360.0 144.7,360.0 145.5,360.0 146.2,360.0 147.0,360.0 147.8,360.0 148.6,360.0 149.4,360.0 150.2,360.0 150.9,360.0 151.7,360.0 152.5,360.0 153.3,360.0 154.1,360.0 154.8,360.0 155.6,360.0 156.4,360.0 157.2,360.0 158.0,360.0 158.8,360.0 159.5,360.0 160.3,360.0 161.1,360.0 161.9,360.0 162.7,360.0 163.4,360.0 164.2,360.0 165.0,360.0 165.8,360.0 166.6,360.0 167.3,360.0 168.1,360.0 168.9,360.0 169.7,360.0 170.5,360.0 171.2,360.0 172.0,360.0 172.8,360.0 173.6,360.0 174.4,360.0 175.2,360.0 175.9,360.0 176.7,360.0 177.5,322.0 178.3,322.0 179.1,322.0 179.8,322.0 180.6,322.0 181.4,322.0 182.2,322.0 183.0,322.0 183.8,322.0 184.5,322.0 185.3,322.0 186.1,322.0 186.9,322.0 187.7,322.0 188.4,322.0 189.2,322.0 190.0,322.0 190.8,322.0 191.6,322.0 192.3,322.0 193.1,322.0 193.9,322.0 194.7,322.0 195.5,322.0 196.2,322.0 197.0,322.0 197.8,322.0 198.6,322.0 199.4,322.0 200.2,322.0 200.9,322.0 201.7,322.0 202.5,322.0 203.3,360.0 204.1,360.0 204.8,360.0 205.6,360.0 206.4,360.0 207.2,360.0 208.0,360.0 208.8,360.0 209.5,360.0 210.3,360.0 211.1,360.0 211.9,360.0 212.7,360.0 213.4,360.0 214.2,360.0 215.0,360.0 215.8,360.0 216.6,360.0 217.3,360.0 218.1,360.0 218.9,360.0 219.7,360.0 220.5,360.0 221.2,360.0 222.0,360.0 222.8,360.0 223.6,360.0 224.4,360.0 225.2,360.0 225.9,360.0 226.7,360.0 227.5,360.0 228.3,360.0 229.1,360.0 229.8,360.0 230.6,360.0 231.4,360.0 232.2,360.0 233.0,360.0 233.8,360.0 234.5,360.0 235.3,360.0 236.1,360.0 236.9,360.0 237.7,322.0 238.4,322.0 239.2,322.0 240.0,322.0 240.8,322.0 241.6,322.0 242.3,322.0 243.1,322.0 243.9,322.0 244.7,322.0 245.5,322.0 246.2,322.0 247.0,322.0 247.8,322.0 248.6,322.0 249.4,322.0 250.2,322.0 250.9,322.0 251.7,322.0 252.5,322.0 253.3,322.0 254.1,322.0 254.8,322.0 255.6,322.0 256.4,322.0 257.2,322.0 258.0,322.0 258.8,322.0 259.5,322.0 260.3,322.0 261.1,322.0 261.9,322.0 262.7,322.0 263.4,360.0 264.2,360.0 265.0,360.0 265.8,360.0 266.6,360.0 267.3,360.0 268.1,360.0 268.9,360.0 269.7,360.0 270.5,360.0 271.2,360.0 272.0,360.0 272.8,360.0 273.6,360.0 274.4,360.0 275.2,360.0 275.9,360.0 276.7,360.0 277.5,360.0 278.3,360.0 279.1,360.0 279.8,360.0 280.6,360.0 281.4,360.0 282.2,360.0 283.0,360.0 283.8,360.0 284.5,360.0 285.3,360.0 286.1,360.0 286.9,360.0 287.7,360.0 288.4,360.0 289.2,360.0 290.0,360.0" fill="none" stroke="#6b6a66" stroke-width="1.2" stroke-linejoin="round" stroke-linecap="round" stroke-dasharray="3 3"/>
<polyline points="90.0,360.0 90.4,360.0 90.8,360.0 91.2,360.0 91.6,360.0 92.0,360.0 92.3,360.0 92.7,360.0 93.1,360.0 93.5,360.0 93.9,360.0 94.3,360.0 94.7,360.0 95.1,360.0 95.5,360.0 95.9,360.0 96.2,360.0 96.6,360.0 97.0,360.0 97.4,360.0 97.8,360.0 98.2,360.0 98.6,360.0 99.0,360.0 99.4,360.0 99.8,360.0 100.2,360.0 100.5,360.0 100.9,360.0 101.3,360.0 101.7,360.0 102.1,360.0 102.5,360.0 102.9,360.0 103.3,360.0 103.7,360.0 104.1,360.0 104.5,360.0 104.8,360.0 105.2,360.0 105.6,360.0 106.0,360.0 106.4,360.0 106.8,360.0 107.2,360.0 107.6,360.0 108.0,360.0 108.4,360.0 108.8,360.0 109.1,360.0 109.5,360.0 109.9,360.0 110.3,360.0 110.7,360.0 111.1,360.0 111.5,360.0 111.9,360.0 112.3,360.0 112.7,360.0 113.0,360.0 113.4,360.0 113.8,360.0 114.2,360.0 114.6,360.0 115.0,359.8 115.4,359.3 115.8,357.9 116.2,354.9 116.6,349.7 117.0,342.9 117.3,335.6 117.7,329.4 118.1,325.4 118.5,323.3 118.9,322.4 119.3,322.1 119.7,322.0 120.1,322.0 120.5,322.0 120.9,322.0 121.2,322.0 121.6,322.0 122.0,322.0 122.4,322.0 122.8,322.0 123.2,322.0 123.6,322.0 124.0,322.0 124.4,322.0 124.8,322.0 125.2,322.0 125.5,322.0 125.9,322.0 126.3,322.0 126.7,322.0 127.1,322.0 127.5,322.0 127.9,322.0 128.3,322.0 128.7,322.0 129.1,322.0 129.5,322.0 129.8,322.0 130.2,322.0 130.6,322.0 131.0,322.0 131.4,322.0 131.8,322.0 132.2,322.0 132.6,322.0 133.0,322.0 133.4,322.0 133.8,322.0 134.1,322.0 134.5,322.0 134.9,322.0 135.3,322.0 135.7,322.0 136.1,322.0 136.5,322.0 136.9,322.0 137.3,322.0 137.7,322.0 138.0,322.0 138.4,322.0 138.8,322.0 139.2,322.0 139.6,322.0 140.0,322.0 140.4,322.0 140.8,322.1 141.2,322.4 141.6,323.3 142.0,325.4 142.3,329.4 142.7,335.6 143.1,342.9 143.5,349.7 143.9,354.9 144.3,357.9 144.7,359.3 145.1,359.8 145.5,360.0 145.9,360.0 146.2,360.0 146.6,360.0 147.0,360.0 147.4,360.0 147.8,360.0 148.2,360.0 148.6,360.0 149.0,360.0 149.4,360.0 149.8,360.0 150.2,360.0 150.5,360.0 150.9,360.0 151.3,360.0 151.7,360.0 152.1,360.0 152.5,360.0 152.9,360.0 153.3,360.0 153.7,360.0 154.1,360.0 154.5,360.0 154.8,360.0 155.2,360.0 155.6,360.0 156.0,360.0 156.4,360.0 156.8,360.0 157.2,360.0 157.6,360.0 158.0,360.0 158.4,360.0 158.8,360.0 159.1,360.0 159.5,360.0 159.9,360.0 160.3,360.0 160.7,360.0 161.1,360.0 161.5,360.0 161.9,360.0 162.3,360.0 162.7,360.0 163.0,360.0 163.4,360.0 163.8,360.0 164.2,360.0 164.6,360.0 165.0,360.0 165.4,360.0 165.8,360.0 166.2,360.0 166.6,360.0 167.0,360.0 167.3,360.0 167.7,360.0 168.1,360.0 168.5,360.0 168.9,360.0 169.3,360.0 169.7,360.0 170.1,360.0 170.5,360.0 170.9,360.0 171.2,360.0 171.6,360.0 172.0,360.0 172.4,360.0 172.8,360.0 173.2,360.0 173.6,360.0 174.0,360.0 174.4,360.0 174.8,359.9 175.2,359.6 175.5,358.7 175.9,356.6 176.3,352.6 176.7,346.4 177.1,339.1 177.5,332.3 177.9,327.1 178.3,324.1 178.7,322.7 179.1,322.2 179.5,322.0 179.8,322.0 180.2,322.0 180.6,322.0 181.0,322.0 181.4,322.0 181.8,322.0 182.2,322.0 182.6,322.0 183.0,322.0 183.4,322.0 183.8,322.0 184.1,322.0 184.5,322.0 184.9,322.0 185.3,322.0 185.7,322.0 186.1,322.0 186.5,322.0 186.9,322.0 187.3,322.0 187.7,322.0 188.0,322.0 188.4,322.0 188.8,322.0 189.2,322.0 189.6,322.0 190.0,322.0 190.4,322.0 190.8,322.0 191.2,322.0 191.6,322.0 192.0,322.0 192.3,322.0 192.7,322.0 193.1,322.0 193.5,322.0 193.9,322.0 194.3,322.0 194.7,322.0 195.1,322.0 195.5,322.0 195.9,322.0 196.2,322.0 196.6,322.0 197.0,322.0 197.4,322.0 197.8,322.0 198.2,322.0 198.6,322.0 199.0,322.0 199.4,322.0 199.8,322.0 200.2,322.0 200.5,322.0 200.9,322.2 201.3,322.7 201.7,324.1 202.1,327.1 202.5,332.3 202.9,339.1 203.3,346.4 203.7,352.6 204.1,356.6 204.5,358.7 204.8,359.6 205.2,359.9 205.6,360.0 206.0,360.0 206.4,360.0 206.8,360.0 207.2,360.0 207.6,360.0 208.0,360.0 208.4,360.0 208.8,360.0 209.1,360.0 209.5,360.0 209.9,360.0 210.3,360.0 210.7,360.0 211.1,360.0 211.5,360.0 211.9,360.0 212.3,360.0 212.7,360.0 213.0,360.0 213.4,360.0 213.8,360.0 214.2,360.0 214.6,360.0 215.0,360.0 215.4,360.0 215.8,360.0 216.2,360.0 216.6,360.0 217.0,360.0 217.3,360.0 217.7,360.0 218.1,360.0 218.5,360.0 218.9,360.0 219.3,360.0 219.7,360.0 220.1,360.0 220.5,360.0 220.9,360.0 221.2,360.0 221.6,360.0 222.0,360.0 222.4,360.0 222.8,360.0 223.2,360.0 223.6,360.0 224.0,360.0 224.4,360.0 224.8,360.0 225.2,360.0 225.5,360.0 225.9,360.0 226.3,360.0 226.7,360.0 227.1,360.0 227.5,360.0 227.9,360.0 228.3,360.0 228.7,360.0 229.1,360.0 229.5,360.0 229.8,360.0 230.2,360.0 230.6,360.0 231.0,360.0 231.4,360.0 231.8,360.0 232.2,360.0 232.6,360.0 233.0,360.0 233.4,360.0 233.8,360.0 234.1,360.0 234.5,360.0 234.9,359.8 235.3,359.3 235.7,357.9 236.1,354.9 236.5,349.7 236.9,342.9 237.3,335.6 237.7,329.4 238.0,325.4 238.4,323.3 238.8,322.4 239.2,322.1 239.6,322.0 240.0,322.0 240.4,322.0 240.8,322.0 241.2,322.0 241.6,322.0 242.0,322.0 242.3,322.0 242.7,322.0 243.1,322.0 243.5,322.0 243.9,322.0 244.3,322.0 244.7,322.0 245.1,322.0 245.5,322.0 245.9,322.0 246.2,322.0 246.6,322.0 247.0,322.0 247.4,322.0 247.8,322.0 248.2,322.0 248.6,322.0 249.0,322.0 249.4,322.0 249.8,322.0 250.2,322.0 250.5,322.0 250.9,322.0 251.3,322.0 251.7,322.0 252.1,322.0 252.5,322.0 252.9,322.0 253.3,322.0 253.7,322.0 254.1,322.0 254.5,322.0 254.8,322.0 255.2,322.0 255.6,322.0 256.0,322.0 256.4,322.0 256.8,322.0 257.2,322.0 257.6,322.0 258.0,322.0 258.4,322.0 258.8,322.0 259.1,322.0 259.5,322.0 259.9,322.0 260.3,322.0 260.7,322.1 261.1,322.4 261.5,323.3 261.9,325.4 262.3,329.4 262.7,335.6 263.0,342.9 263.4,349.7 263.8,354.9 264.2,357.9 264.6,359.3 265.0,359.8 265.4,360.0 265.8,360.0 266.2,360.0 266.6,360.0 267.0,360.0 267.3,360.0 267.7,360.0 268.1,360.0 268.5,360.0 268.9,360.0 269.3,360.0 269.7,360.0 270.1,360.0 270.5,360.0 270.9,360.0 271.2,360.0 271.6,360.0 272.0,360.0 272.4,360.0 272.8,360.0 273.2,360.0 273.6,360.0 274.0,360.0 274.4,360.0 274.8,360.0 275.2,360.0 275.5,360.0 275.9,360.0 276.3,360.0 276.7,360.0 277.1,360.0 277.5,360.0 277.9,360.0 278.3,360.0 278.7,360.0 279.1,360.0 279.5,360.0 279.8,360.0 280.2,360.0 280.6,360.0 281.0,360.0 281.4,360.0 281.8,360.0 282.2,360.0 282.6,360.0 283.0,360.0 283.4,360.0 283.8,360.0 284.1,360.0 284.5,360.0 284.9,360.0 285.3,360.0 285.7,360.0 286.1,360.0 286.5,360.0 286.9,360.0 287.3,360.0 287.7,360.0 288.0,360.0 288.4,360.0 288.8,360.0 289.2,360.0 289.6,360.0 290.0,360.0" fill="none" stroke="#2a78d6" stroke-width="2" stroke-linejoin="round" stroke-linecap="round"/>
<text x="86.0" y="298.0" font-size="13.4" text-anchor="start" fill="#52514e" font-weight="normal">intensity at the resist</text>
<text x="470.0" y="30.0" font-size="19.0" text-anchor="middle" fill="#1d1c1a" font-weight="bold">Proximity printing</text>
<line x1="380.0" y1="96.0" x2="380.0" y2="160.0" stroke="#5b36c9" stroke-width="2" stroke-linecap="round" marker-end="url(#a5b36c9)"/>
<line x1="410.0" y1="96.0" x2="410.0" y2="160.0" stroke="#5b36c9" stroke-width="2" stroke-linecap="round" marker-end="url(#a5b36c9)"/>
<line x1="440.0" y1="96.0" x2="440.0" y2="160.0" stroke="#5b36c9" stroke-width="2" stroke-linecap="round" marker-end="url(#a5b36c9)"/>
<line x1="470.0" y1="96.0" x2="470.0" y2="160.0" stroke="#5b36c9" stroke-width="2" stroke-linecap="round" marker-end="url(#a5b36c9)"/>
<line x1="500.0" y1="96.0" x2="500.0" y2="160.0" stroke="#5b36c9" stroke-width="2" stroke-linecap="round" marker-end="url(#a5b36c9)"/>
<line x1="530.0" y1="96.0" x2="530.0" y2="160.0" stroke="#5b36c9" stroke-width="2" stroke-linecap="round" marker-end="url(#a5b36c9)"/>
<line x1="560.0" y1="96.0" x2="560.0" y2="160.0" stroke="#5b36c9" stroke-width="2" stroke-linecap="round" marker-end="url(#a5b36c9)"/>
<rect x="370.0" y="182.0" width="200.0" height="24.0" rx="0" fill="#e3eefb" stroke="#2a78d6" stroke-width="1.5"/>
<rect x="370.0" y="206.0" width="27.0" height="6.0" rx="0" fill="#33322f" stroke="#52514e" stroke-width="1"/>
<rect x="423.0" y="206.0" width="34.0" height="6.0" rx="0" fill="#33322f" stroke="#52514e" stroke-width="1"/>
<rect x="483.0" y="206.0" width="34.0" height="6.0" rx="0" fill="#33322f" stroke="#52514e" stroke-width="1"/>
<rect x="543.0" y="206.0" width="27.0" height="6.0" rx="0" fill="#33322f" stroke="#52514e" stroke-width="1"/>
<rect x="360.0" y="246.0" width="220.0" height="12.0" rx="0" fill="#fbd5bf" stroke="#c8551f" stroke-width="1.2"/>
<rect x="360.0" y="258.0" width="220.0" height="22.0" rx="0" fill="#d6d4cc" stroke="#8a8780" stroke-width="1.2"/>
<line x1="348.0" y1="214.0" x2="348.0" y2="244.0" stroke="#52514e" stroke-width="1.5" stroke-linecap="round" marker-end="url(#a52514e)" marker-start="url(#a52514e)"/>
<text x="342.0" y="234.0" font-size="16.8" text-anchor="end" fill="#1d1c1a" font-weight="normal" font-style="italic">g</text>
<text x="578.0" y="178.0" font-size="13.4" text-anchor="start" fill="#52514e" font-weight="normal">mask</text>
<line x1="366.0" y1="360.0" x2="574.0" y2="360.0" stroke="#d9d8d2" stroke-width="1" stroke-linecap="round"/>
<polyline points="370.0,360.0 370.8,360.0 371.6,360.0 372.3,360.0 373.1,360.0 373.9,360.0 374.7,360.0 375.5,360.0 376.2,360.0 377.0,360.0 377.8,360.0 378.6,360.0 379.4,360.0 380.2,360.0 380.9,360.0 381.7,360.0 382.5,360.0 383.3,360.0 384.1,360.0 384.8,360.0 385.6,360.0 386.4,360.0 387.2,360.0 388.0,360.0 388.8,360.0 389.5,360.0 390.3,360.0 391.1,360.0 391.9,360.0 392.7,360.0 393.4,360.0 394.2,360.0 395.0,360.0 395.8,360.0 396.6,360.0 397.3,322.0 398.1,322.0 398.9,322.0 399.7,322.0 400.5,322.0 401.2,322.0 402.0,322.0 402.8,322.0 403.6,322.0 404.4,322.0 405.2,322.0 405.9,322.0 406.7,322.0 407.5,322.0 408.3,322.0 409.1,322.0 409.8,322.0 410.6,322.0 411.4,322.0 412.2,322.0 413.0,322.0 413.8,322.0 414.5,322.0 415.3,322.0 416.1,322.0 416.9,322.0 417.7,322.0 418.4,322.0 419.2,322.0 420.0,322.0 420.8,322.0 421.6,322.0 422.3,322.0 423.1,360.0 423.9,360.0 424.7,360.0 425.5,360.0 426.2,360.0 427.0,360.0 427.8,360.0 428.6,360.0 429.4,360.0 430.2,360.0 430.9,360.0 431.7,360.0 432.5,360.0 433.3,360.0 434.1,360.0 434.8,360.0 435.6,360.0 436.4,360.0 437.2,360.0 438.0,360.0 438.8,360.0 439.5,360.0 440.3,360.0 441.1,360.0 441.9,360.0 442.7,360.0 443.4,360.0 444.2,360.0 445.0,360.0 445.8,360.0 446.6,360.0 447.3,360.0 448.1,360.0 448.9,360.0 449.7,360.0 450.5,360.0 451.2,360.0 452.0,360.0 452.8,360.0 453.6,360.0 454.4,360.0 455.2,360.0 455.9,360.0 456.7,360.0 457.5,322.0 458.3,322.0 459.1,322.0 459.8,322.0 460.6,322.0 461.4,322.0 462.2,322.0 463.0,322.0 463.8,322.0 464.5,322.0 465.3,322.0 466.1,322.0 466.9,322.0 467.7,322.0 468.4,322.0 469.2,322.0 470.0,322.0 470.8,322.0 471.6,322.0 472.3,322.0 473.1,322.0 473.9,322.0 474.7,322.0 475.5,322.0 476.2,322.0 477.0,322.0 477.8,322.0 478.6,322.0 479.4,322.0 480.2,322.0 480.9,322.0 481.7,322.0 482.5,322.0 483.3,360.0 484.1,360.0 484.8,360.0 485.6,360.0 486.4,360.0 487.2,360.0 488.0,360.0 488.8,360.0 489.5,360.0 490.3,360.0 491.1,360.0 491.9,360.0 492.7,360.0 493.4,360.0 494.2,360.0 495.0,360.0 495.8,360.0 496.6,360.0 497.3,360.0 498.1,360.0 498.9,360.0 499.7,360.0 500.5,360.0 501.2,360.0 502.0,360.0 502.8,360.0 503.6,360.0 504.4,360.0 505.2,360.0 505.9,360.0 506.7,360.0 507.5,360.0 508.3,360.0 509.1,360.0 509.8,360.0 510.6,360.0 511.4,360.0 512.2,360.0 513.0,360.0 513.8,360.0 514.5,360.0 515.3,360.0 516.1,360.0 516.9,360.0 517.7,322.0 518.4,322.0 519.2,322.0 520.0,322.0 520.8,322.0 521.6,322.0 522.3,322.0 523.1,322.0 523.9,322.0 524.7,322.0 525.5,322.0 526.2,322.0 527.0,322.0 527.8,322.0 528.6,322.0 529.4,322.0 530.2,322.0 530.9,322.0 531.7,322.0 532.5,322.0 533.3,322.0 534.1,322.0 534.8,322.0 535.6,322.0 536.4,322.0 537.2,322.0 538.0,322.0 538.8,322.0 539.5,322.0 540.3,322.0 541.1,322.0 541.9,322.0 542.7,322.0 543.4,360.0 544.2,360.0 545.0,360.0 545.8,360.0 546.6,360.0 547.3,360.0 548.1,360.0 548.9,360.0 549.7,360.0 550.5,360.0 551.2,360.0 552.0,360.0 552.8,360.0 553.6,360.0 554.4,360.0 555.2,360.0 555.9,360.0 556.7,360.0 557.5,360.0 558.3,360.0 559.1,360.0 559.8,360.0 560.6,360.0 561.4,360.0 562.2,360.0 563.0,360.0 563.8,360.0 564.5,360.0 565.3,360.0 566.1,360.0 566.9,360.0 567.7,360.0 568.4,360.0 569.2,360.0 570.0,360.0" fill="none" stroke="#6b6a66" stroke-width="1.2" stroke-linejoin="round" stroke-linecap="round" stroke-dasharray="3 3"/>
<polyline points="370.0,359.5 370.4,359.5 370.8,359.5 371.2,359.6 371.6,359.7 372.0,359.5 372.3,359.4 372.7,359.4 373.1,359.4 373.5,359.5 373.9,359.5 374.3,359.5 374.7,359.4 375.1,359.3 375.5,359.3 375.9,359.2 376.2,359.2 376.6,359.3 377.0,359.4 377.4,359.4 377.8,359.2 378.2,359.0 378.6,359.0 379.0,359.1 379.4,359.3 379.8,359.4 380.2,359.3 380.5,359.2 380.9,359.2 381.3,359.1 381.7,359.0 382.1,358.9 382.5,358.9 382.9,358.9 383.3,358.9 383.7,358.7 384.1,358.4 384.5,358.3 384.8,358.4 385.2,358.3 385.6,358.1 386.0,357.9 386.4,357.9 386.8,357.9 387.2,357.9 387.6,357.7 388.0,357.7 388.4,357.8 388.8,357.7 389.1,357.3 389.5,357.1 389.9,357.3 390.3,357.4 390.7,357.3 391.1,356.8 391.5,356.2 391.9,355.9 392.3,356.1 392.7,356.0 393.0,355.6 393.4,355.5 393.8,355.3 394.2,354.3 394.6,353.2 395.0,352.9 395.4,352.9 395.8,352.5 396.2,351.2 396.6,349.5 397.0,348.4 397.3,347.9 397.7,347.5 398.1,346.5 398.5,345.1 398.9,344.0 399.3,343.2 399.7,342.2 400.1,341.2 400.5,341.1 400.9,341.0 401.2,339.4 401.6,337.5 402.0,337.9 402.4,339.2 402.8,338.5 403.2,336.5 403.6,334.9 404.0,333.6 404.4,331.8 404.8,329.8 405.2,327.4 405.5,324.4 405.9,320.8 406.3,316.4 406.7,312.2 407.1,309.9 407.5,307.9 407.9,303.2 408.3,298.1 408.7,296.2 409.1,296.4 409.5,295.6 409.8,294.0 410.2,293.3 410.6,293.4 411.0,294.0 411.4,295.9 411.8,299.4 412.2,303.3 412.6,306.4 413.0,309.0 413.4,312.1 413.8,316.8 414.1,321.9 414.5,325.5 414.9,327.3 415.3,329.1 415.7,331.8 416.1,334.3 416.5,335.7 416.9,336.6 417.3,337.7 417.7,338.4 418.0,338.3 418.4,338.2 418.8,338.9 419.2,339.9 419.6,340.3 420.0,340.5 420.4,341.3 420.8,342.9 421.2,344.4 421.6,345.5 422.0,346.4 422.3,347.6 422.7,348.7 423.1,349.7 423.5,350.5 423.9,351.1 424.3,351.4 424.7,351.6 425.1,352.0 425.5,352.7 425.9,353.7 426.2,354.5 426.6,354.9 427.0,355.3 427.4,355.6 427.8,355.7 428.2,355.9 428.6,356.3 429.0,356.5 429.4,356.6 429.8,357.1 430.2,357.9 430.5,358.3 430.9,358.3 431.3,357.9 431.7,357.6 432.1,357.1 432.5,356.6 432.9,356.2 433.3,356.1 433.7,356.3 434.1,356.5 434.5,356.9 434.8,357.4 435.2,358.0 435.6,358.6 436.0,359.1 436.4,359.4 436.8,359.5 437.2,359.3 437.6,359.0 438.0,358.7 438.4,358.4 438.8,357.9 439.1,357.6 439.5,357.4 439.9,357.3 440.3,357.3 440.7,357.5 441.1,357.8 441.5,358.2 441.9,358.5 442.3,358.8 442.7,359.0 443.0,359.3 443.4,359.5 443.8,359.3 444.2,358.9 444.6,358.3 445.0,357.7 445.4,357.2 445.8,356.8 446.2,356.3 446.6,356.0 447.0,356.1 447.3,356.5 447.7,357.0 448.1,357.4 448.5,357.7 448.9,357.9 449.3,358.1 449.7,358.0 450.1,357.7 450.5,357.3 450.9,356.7 451.2,356.1 451.6,355.6 452.0,355.4 452.4,355.6 452.8,355.8 453.2,355.6 453.6,355.0 454.0,354.0 454.4,352.9 454.8,352.1 455.2,351.7 455.5,351.6 455.9,351.4 456.3,350.7 456.7,349.9 457.1,349.0 457.5,348.1 457.9,347.2 458.3,346.2 458.7,344.9 459.1,343.4 459.5,342.1 459.8,341.2 460.2,340.6 460.6,339.9 461.0,339.0 461.4,338.2 461.8,337.9 462.2,338.1 462.6,338.3 463.0,337.8 463.4,336.4 463.8,334.5 464.1,332.6 464.5,331.0 464.9,329.1 465.3,326.4 465.7,322.7 466.1,318.5 466.5,314.4 466.9,310.8 467.3,307.5 467.7,304.1 468.0,300.6 468.4,297.4 468.8,295.4 469.2,294.6 469.6,294.5 470.0,294.4 470.4,294.5 470.8,294.6 471.2,295.4 471.6,297.4 472.0,300.6 472.3,304.1 472.7,307.5 473.1,310.8 473.5,314.4 473.9,318.5 474.3,322.7 474.7,326.4 475.1,329.1 475.5,331.0 475.9,332.6 476.2,334.5 476.6,336.4 477.0,337.8 477.4,338.3 477.8,338.1 478.2,337.9 478.6,338.2 479.0,339.0 479.4,339.9 479.8,340.6 480.2,341.2 480.5,342.1 480.9,343.4 481.3,344.9 481.7,346.2 482.1,347.2 482.5,348.1 482.9,349.0 483.3,349.9 483.7,350.7 484.1,351.4 484.5,351.6 484.8,351.7 485.2,352.1 485.6,352.9 486.0,354.0 486.4,355.0 486.8,355.6 487.2,355.8 487.6,355.6 488.0,355.4 488.4,355.6 488.8,356.1 489.1,356.7 489.5,357.3 489.9,357.7 490.3,358.0 490.7,358.1 491.1,357.9 491.5,357.7 491.9,357.4 492.3,357.0 492.7,356.5 493.0,356.1 493.4,356.0 493.8,356.3 494.2,356.8 494.6,357.2 495.0,357.7 495.4,358.3 495.8,358.9 496.2,359.3 496.6,359.5 497.0,359.3 497.3,359.0 497.7,358.8 498.1,358.5 498.5,358.2 498.9,357.8 499.3,357.5 499.7,357.3 500.1,357.3 500.5,357.4 500.9,357.6 501.2,357.9 501.6,358.4 502.0,358.7 502.4,359.0 502.8,359.3 503.2,359.5 503.6,359.4 504.0,359.1 504.4,358.6 504.8,358.0 505.2,357.4 505.5,356.9 505.9,356.5 506.3,356.3 506.7,356.1 507.1,356.2 507.5,356.6 507.9,357.1 508.3,357.6 508.7,357.9 509.1,358.3 509.5,358.3 509.8,357.9 510.2,357.1 510.6,356.6 511.0,356.5 511.4,356.3 511.8,355.9 512.2,355.7 512.6,355.6 513.0,355.3 513.4,354.9 513.8,354.5 514.1,353.7 514.5,352.7 514.9,352.0 515.3,351.6 515.7,351.4 516.1,351.1 516.5,350.5 516.9,349.7 517.3,348.7 517.7,347.6 518.0,346.4 518.4,345.5 518.8,344.4 519.2,342.9 519.6,341.3 520.0,340.5 520.4,340.3 520.8,339.9 521.2,338.9 521.6,338.2 522.0,338.3 522.3,338.4 522.7,337.7 523.1,336.6 523.5,335.7 523.9,334.3 524.3,331.8 524.7,329.1 525.1,327.3 525.5,325.5 525.9,321.9 526.2,316.8 526.6,312.1 527.0,309.0 527.4,306.4 527.8,303.3 528.2,299.4 528.6,295.9 529.0,294.0 529.4,293.4 529.8,293.3 530.2,294.0 530.5,295.6 530.9,296.4 531.3,296.2 531.7,298.1 532.1,303.2 532.5,307.9 532.9,309.9 533.3,312.2 533.7,316.4 534.1,320.8 534.5,324.4 534.8,327.4 535.2,329.8 535.6,331.8 536.0,333.6 536.4,334.9 536.8,336.5 537.2,338.5 537.6,339.2 538.0,337.9 538.4,337.5 538.8,339.4 539.1,341.0 539.5,341.1 539.9,341.2 540.3,342.2 540.7,343.2 541.1,344.0 541.5,345.1 541.9,346.5 542.3,347.5 542.7,347.9 543.0,348.4 543.4,349.5 543.8,351.2 544.2,352.5 544.6,352.9 545.0,352.9 545.4,353.2 545.8,354.3 546.2,355.3 546.6,355.5 547.0,355.6 547.3,356.0 547.7,356.1 548.1,355.9 548.5,356.2 548.9,356.8 549.3,357.3 549.7,357.4 550.1,357.3 550.5,357.1 550.9,357.3 551.2,357.7 551.6,357.8 552.0,357.7 552.4,357.7 552.8,357.9 553.2,357.9 553.6,357.9 554.0,357.9 554.4,358.1 554.8,358.3 555.2,358.4 555.5,358.3 555.9,358.4 556.3,358.7 556.7,358.9 557.1,358.9 557.5,358.9 557.9,358.9 558.3,359.0 558.7,359.1 559.1,359.2 559.5,359.2 559.8,359.3 560.2,359.4 560.6,359.3 561.0,359.1 561.4,359.0 561.8,359.0 562.2,359.2 562.6,359.4 563.0,359.4 563.4,359.3 563.8,359.2 564.1,359.2 564.5,359.3 564.9,359.3 565.3,359.4 565.7,359.5 566.1,359.5 566.5,359.5 566.9,359.4 567.3,359.4 567.7,359.4 568.0,359.5 568.4,359.7 568.8,359.6 569.2,359.5 569.6,359.5 570.0,359.5" fill="none" stroke="#2a78d6" stroke-width="2" stroke-linejoin="round" stroke-linecap="round"/>
<text x="750.0" y="30.0" font-size="19.0" text-anchor="middle" fill="#1d1c1a" font-weight="bold">Projection printing</text>
<line x1="670.0" y1="44.0" x2="670.0" y2="76.0" stroke="#5b36c9" stroke-width="2" stroke-linecap="round" marker-end="url(#a5b36c9)"/>
<line x1="702.0" y1="44.0" x2="702.0" y2="76.0" stroke="#5b36c9" stroke-width="2" stroke-linecap="round" marker-end="url(#a5b36c9)"/>
<line x1="734.0" y1="44.0" x2="734.0" y2="76.0" stroke="#5b36c9" stroke-width="2" stroke-linecap="round" marker-end="url(#a5b36c9)"/>
<line x1="766.0" y1="44.0" x2="766.0" y2="76.0" stroke="#5b36c9" stroke-width="2" stroke-linecap="round" marker-end="url(#a5b36c9)"/>
<line x1="798.0" y1="44.0" x2="798.0" y2="76.0" stroke="#5b36c9" stroke-width="2" stroke-linecap="round" marker-end="url(#a5b36c9)"/>
<line x1="830.0" y1="44.0" x2="830.0" y2="76.0" stroke="#5b36c9" stroke-width="2" stroke-linecap="round" marker-end="url(#a5b36c9)"/>
<rect x="650.0" y="80.0" width="200.0" height="24.0" rx="0" fill="#e3eefb" stroke="#2a78d6" stroke-width="1.5"/>
<rect x="650.0" y="104.0" width="27.0" height="6.0" rx="0" fill="#33322f" stroke="#52514e" stroke-width="1"/>
<rect x="703.0" y="104.0" width="34.0" height="6.0" rx="0" fill="#33322f" stroke="#52514e" stroke-width="1"/>
<rect x="763.0" y="104.0" width="34.0" height="6.0" rx="0" fill="#33322f" stroke="#52514e" stroke-width="1"/>
<rect x="823.0" y="104.0" width="27.0" height="6.0" rx="0" fill="#33322f" stroke="#52514e" stroke-width="1"/>
<path d="M654,166 Q750,132 846,166 Q750,200 654,166 Z" fill="#e3eefb" stroke="#2a78d6" stroke-width="1.5" stroke-linejoin="round" stroke-linecap="round"/>
<text x="854.0" y="171.0" font-size="13.4" text-anchor="start" fill="#52514e" font-weight="normal">lens</text>
<polygon points="650.0,110.0 850.0,110.0 842.0,166.0 795.0,246.0 705.0,246.0 658.0,166.0" fill="#5b36c9" fill-opacity="0.12" stroke="#5b36c9" stroke-width="1.2" stroke-linejoin="round" stroke-linecap="round"/>
<rect x="680.0" y="246.0" width="140.0" height="12.0" rx="0" fill="#fbd5bf" stroke="#c8551f" stroke-width="1.2"/>
<rect x="680.0" y="258.0" width="140.0" height="22.0" rx="0" fill="#d6d4cc" stroke="#8a8780" stroke-width="1.2"/>
<line x1="705.0" y1="242.0" x2="795.0" y2="242.0" stroke="#5b36c9" stroke-width="3" stroke-linecap="round"/>
<text x="858.0" y="90.0" font-size="13.4" text-anchor="start" fill="#52514e" font-weight="normal">mask</text>
<text x="828.0" y="255.0" font-size="13.4" text-anchor="start" fill="#52514e" font-weight="normal">image field</text>
<text x="828.0" y="270.0" font-size="13.4" text-anchor="start" fill="#52514e" font-weight="normal">(reduced)</text>
<line x1="646.0" y1="360.0" x2="854.0" y2="360.0" stroke="#d9d8d2" stroke-width="1" stroke-linecap="round"/>
<polyline points="650.0,360.0 650.8,360.0 651.6,360.0 652.3,360.0 653.1,360.0 653.9,360.0 654.7,360.0 655.5,360.0 656.2,360.0 657.0,360.0 657.8,360.0 658.6,360.0 659.4,360.0 660.2,360.0 660.9,360.0 661.7,360.0 662.5,360.0 663.3,360.0 664.1,360.0 664.8,360.0 665.6,360.0 666.4,360.0 667.2,360.0 668.0,360.0 668.8,360.0 669.5,360.0 670.3,360.0 671.1,360.0 671.9,360.0 672.7,360.0 673.4,360.0 674.2,360.0 675.0,360.0 675.8,360.0 676.6,360.0 677.3,322.0 678.1,322.0 678.9,322.0 679.7,322.0 680.5,322.0 681.2,322.0 682.0,322.0 682.8,322.0 683.6,322.0 684.4,322.0 685.2,322.0 685.9,322.0 686.7,322.0 687.5,322.0 688.3,322.0 689.1,322.0 689.8,322.0 690.6,322.0 691.4,322.0 692.2,322.0 693.0,322.0 693.8,322.0 694.5,322.0 695.3,322.0 696.1,322.0 696.9,322.0 697.7,322.0 698.4,322.0 699.2,322.0 700.0,322.0 700.8,322.0 701.6,322.0 702.3,322.0 703.1,360.0 703.9,360.0 704.7,360.0 705.5,360.0 706.2,360.0 707.0,360.0 707.8,360.0 708.6,360.0 709.4,360.0 710.2,360.0 710.9,360.0 711.7,360.0 712.5,360.0 713.3,360.0 714.1,360.0 714.8,360.0 715.6,360.0 716.4,360.0 717.2,360.0 718.0,360.0 718.8,360.0 719.5,360.0 720.3,360.0 721.1,360.0 721.9,360.0 722.7,360.0 723.4,360.0 724.2,360.0 725.0,360.0 725.8,360.0 726.6,360.0 727.3,360.0 728.1,360.0 728.9,360.0 729.7,360.0 730.5,360.0 731.2,360.0 732.0,360.0 732.8,360.0 733.6,360.0 734.4,360.0 735.2,360.0 735.9,360.0 736.7,360.0 737.5,322.0 738.3,322.0 739.1,322.0 739.8,322.0 740.6,322.0 741.4,322.0 742.2,322.0 743.0,322.0 743.8,322.0 744.5,322.0 745.3,322.0 746.1,322.0 746.9,322.0 747.7,322.0 748.4,322.0 749.2,322.0 750.0,322.0 750.8,322.0 751.6,322.0 752.3,322.0 753.1,322.0 753.9,322.0 754.7,322.0 755.5,322.0 756.2,322.0 757.0,322.0 757.8,322.0 758.6,322.0 759.4,322.0 760.2,322.0 760.9,322.0 761.7,322.0 762.5,322.0 763.3,360.0 764.1,360.0 764.8,360.0 765.6,360.0 766.4,360.0 767.2,360.0 768.0,360.0 768.8,360.0 769.5,360.0 770.3,360.0 771.1,360.0 771.9,360.0 772.7,360.0 773.4,360.0 774.2,360.0 775.0,360.0 775.8,360.0 776.6,360.0 777.3,360.0 778.1,360.0 778.9,360.0 779.7,360.0 780.5,360.0 781.2,360.0 782.0,360.0 782.8,360.0 783.6,360.0 784.4,360.0 785.2,360.0 785.9,360.0 786.7,360.0 787.5,360.0 788.3,360.0 789.1,360.0 789.8,360.0 790.6,360.0 791.4,360.0 792.2,360.0 793.0,360.0 793.8,360.0 794.5,360.0 795.3,360.0 796.1,360.0 796.9,360.0 797.7,322.0 798.4,322.0 799.2,322.0 800.0,322.0 800.8,322.0 801.6,322.0 802.3,322.0 803.1,322.0 803.9,322.0 804.7,322.0 805.5,322.0 806.2,322.0 807.0,322.0 807.8,322.0 808.6,322.0 809.4,322.0 810.2,322.0 810.9,322.0 811.7,322.0 812.5,322.0 813.3,322.0 814.1,322.0 814.8,322.0 815.6,322.0 816.4,322.0 817.2,322.0 818.0,322.0 818.8,322.0 819.5,322.0 820.3,322.0 821.1,322.0 821.9,322.0 822.7,322.0 823.4,360.0 824.2,360.0 825.0,360.0 825.8,360.0 826.6,360.0 827.3,360.0 828.1,360.0 828.9,360.0 829.7,360.0 830.5,360.0 831.2,360.0 832.0,360.0 832.8,360.0 833.6,360.0 834.4,360.0 835.2,360.0 835.9,360.0 836.7,360.0 837.5,360.0 838.3,360.0 839.1,360.0 839.8,360.0 840.6,360.0 841.4,360.0 842.2,360.0 843.0,360.0 843.8,360.0 844.5,360.0 845.3,360.0 846.1,360.0 846.9,360.0 847.7,360.0 848.4,360.0 849.2,360.0 850.0,360.0" fill="none" stroke="#6b6a66" stroke-width="1.2" stroke-linejoin="round" stroke-linecap="round" stroke-dasharray="3 3"/>
<polyline points="650.0,359.4 650.4,359.4 650.8,359.3 651.2,359.3 651.6,359.3 652.0,359.3 652.3,359.3 652.7,359.3 653.1,359.3 653.5,359.3 653.9,359.3 654.3,359.3 654.7,359.3 655.1,359.3 655.5,359.3 655.9,359.3 656.2,359.3 656.6,359.4 657.0,359.4 657.4,359.4 657.8,359.4 658.2,359.5 658.6,359.5 659.0,359.5 659.4,359.6 659.8,359.6 660.2,359.6 660.5,359.6 660.9,359.7 661.3,359.7 661.7,359.7 662.1,359.7 662.5,359.7 662.9,359.7 663.3,359.7 663.7,359.6 664.1,359.6 664.5,359.5 664.8,359.5 665.2,359.4 665.6,359.3 666.0,359.2 666.4,359.1 666.8,359.0 667.2,358.8 667.6,358.6 668.0,358.4 668.4,358.2 668.8,358.0 669.1,357.7 669.5,357.4 669.9,357.1 670.3,356.8 670.7,356.4 671.1,356.0 671.5,355.6 671.9,355.2 672.3,354.8 672.7,354.3 673.0,353.8 673.4,353.3 673.8,352.7 674.2,352.2 674.6,351.6 675.0,351.0 675.4,350.4 675.8,349.7 676.2,349.1 676.6,348.4 677.0,347.7 677.3,347.0 677.7,346.3 678.1,345.6 678.5,344.9 678.9,344.1 679.3,343.4 679.7,342.7 680.1,341.9 680.5,341.2 680.9,340.5 681.2,339.8 681.6,339.1 682.0,338.4 682.4,337.7 682.8,337.1 683.2,336.5 683.6,335.8 684.0,335.3 684.4,334.7 684.8,334.2 685.2,333.7 685.5,333.2 685.9,332.7 686.3,332.3 686.7,332.0 687.1,331.6 687.5,331.3 687.9,331.1 688.3,330.9 688.7,330.7 689.1,330.6 689.5,330.5 689.8,330.5 690.2,330.5 690.6,330.5 691.0,330.6 691.4,330.7 691.8,330.9 692.2,331.1 692.6,331.4 693.0,331.6 693.4,332.0 693.8,332.3 694.1,332.8 694.5,333.2 694.9,333.7 695.3,334.2 695.7,334.7 696.1,335.3 696.5,335.9 696.9,336.5 697.3,337.1 697.7,337.7 698.0,338.4 698.4,339.1 698.8,339.8 699.2,340.5 699.6,341.2 700.0,341.9 700.4,342.6 700.8,343.4 701.2,344.1 701.6,344.8 702.0,345.5 702.3,346.2 702.7,346.9 703.1,347.6 703.5,348.3 703.9,348.9 704.3,349.6 704.7,350.2 705.1,350.8 705.5,351.4 705.9,352.0 706.2,352.5 706.6,353.0 707.0,353.5 707.4,354.0 707.8,354.5 708.2,354.9 708.6,355.3 709.0,355.7 709.4,356.1 709.8,356.4 710.2,356.7 710.5,357.0 710.9,357.3 711.3,357.5 711.7,357.8 712.1,358.0 712.5,358.2 712.9,358.3 713.3,358.5 713.7,358.6 714.1,358.7 714.5,358.9 714.8,359.0 715.2,359.0 715.6,359.1 716.0,359.2 716.4,359.2 716.8,359.3 717.2,359.3 717.6,359.3 718.0,359.4 718.4,359.4 718.8,359.4 719.1,359.4 719.5,359.4 719.9,359.4 720.3,359.4 720.7,359.3 721.1,359.3 721.5,359.3 721.9,359.3 722.3,359.2 722.7,359.2 723.0,359.1 723.4,359.1 723.8,359.0 724.2,358.9 724.6,358.9 725.0,358.8 725.4,358.7 725.8,358.6 726.2,358.4 726.6,358.3 727.0,358.1 727.3,358.0 727.7,357.8 728.1,357.6 728.5,357.4 728.9,357.2 729.3,356.9 729.7,356.6 730.1,356.4 730.5,356.0 730.9,355.7 731.2,355.4 731.6,355.0 732.0,354.6 732.4,354.2 732.8,353.7 733.2,353.3 733.6,352.8 734.0,352.3 734.4,351.7 734.8,351.2 735.2,350.6 735.5,350.0 735.9,349.4 736.3,348.8 736.7,348.2 737.1,347.5 737.5,346.9 737.9,346.2 738.3,345.5 738.7,344.8 739.1,344.1 739.5,343.4 739.8,342.7 740.2,342.0 740.6,341.3 741.0,340.7 741.4,340.0 741.8,339.3 742.2,338.7 742.6,338.0 743.0,337.4 743.4,336.8 743.8,336.2 744.1,335.6 744.5,335.1 744.9,334.6 745.3,334.1 745.7,333.7 746.1,333.2 746.5,332.9 746.9,332.5 747.3,332.2 747.7,331.9 748.0,331.7 748.4,331.5 748.8,331.4 749.2,331.3 749.6,331.2 750.0,331.2 750.4,331.2 750.8,331.3 751.2,331.4 751.6,331.5 752.0,331.7 752.3,331.9 752.7,332.2 753.1,332.5 753.5,332.9 753.9,333.2 754.3,333.7 754.7,334.1 755.1,334.6 755.5,335.1 755.9,335.6 756.2,336.2 756.6,336.8 757.0,337.4 757.4,338.0 757.8,338.7 758.2,339.3 758.6,340.0 759.0,340.7 759.4,341.3 759.8,342.0 760.2,342.7 760.5,343.4 760.9,344.1 761.3,344.8 761.7,345.5 762.1,346.2 762.5,346.9 762.9,347.5 763.3,348.2 763.7,348.8 764.1,349.4 764.5,350.0 764.8,350.6 765.2,351.2 765.6,351.7 766.0,352.3 766.4,352.8 766.8,353.3 767.2,353.7 767.6,354.2 768.0,354.6 768.4,355.0 768.8,355.4 769.1,355.7 769.5,356.0 769.9,356.4 770.3,356.6 770.7,356.9 771.1,357.2 771.5,357.4 771.9,357.6 772.3,357.8 772.7,358.0 773.0,358.1 773.4,358.3 773.8,358.4 774.2,358.6 774.6,358.7 775.0,358.8 775.4,358.9 775.8,358.9 776.2,359.0 776.6,359.1 777.0,359.1 777.3,359.2 777.7,359.2 778.1,359.3 778.5,359.3 778.9,359.3 779.3,359.3 779.7,359.4 780.1,359.4 780.5,359.4 780.9,359.4 781.2,359.4 781.6,359.4 782.0,359.4 782.4,359.3 782.8,359.3 783.2,359.3 783.6,359.2 784.0,359.2 784.4,359.1 784.8,359.0 785.2,359.0 785.5,358.9 785.9,358.7 786.3,358.6 786.7,358.5 787.1,358.3 787.5,358.2 787.9,358.0 788.3,357.8 788.7,357.5 789.1,357.3 789.5,357.0 789.8,356.7 790.2,356.4 790.6,356.1 791.0,355.7 791.4,355.3 791.8,354.9 792.2,354.5 792.6,354.0 793.0,353.5 793.4,353.0 793.8,352.5 794.1,352.0 794.5,351.4 794.9,350.8 795.3,350.2 795.7,349.6 796.1,348.9 796.5,348.3 796.9,347.6 797.3,346.9 797.7,346.2 798.0,345.5 798.4,344.8 798.8,344.1 799.2,343.4 799.6,342.6 800.0,341.9 800.4,341.2 800.8,340.5 801.2,339.8 801.6,339.1 802.0,338.4 802.3,337.7 802.7,337.1 803.1,336.5 803.5,335.9 803.9,335.3 804.3,334.7 804.7,334.2 805.1,333.7 805.5,333.2 805.9,332.8 806.2,332.3 806.6,332.0 807.0,331.6 807.4,331.4 807.8,331.1 808.2,330.9 808.6,330.7 809.0,330.6 809.4,330.5 809.8,330.5 810.2,330.5 810.5,330.5 810.9,330.6 811.3,330.7 811.7,330.9 812.1,331.1 812.5,331.3 812.9,331.6 813.3,332.0 813.7,332.3 814.1,332.7 814.5,333.2 814.8,333.7 815.2,334.2 815.6,334.7 816.0,335.3 816.4,335.8 816.8,336.5 817.2,337.1 817.6,337.7 818.0,338.4 818.4,339.1 818.8,339.8 819.1,340.5 819.5,341.2 819.9,341.9 820.3,342.7 820.7,343.4 821.1,344.1 821.5,344.9 821.9,345.6 822.3,346.3 822.7,347.0 823.0,347.7 823.4,348.4 823.8,349.1 824.2,349.7 824.6,350.4 825.0,351.0 825.4,351.6 825.8,352.2 826.2,352.7 826.6,353.3 827.0,353.8 827.3,354.3 827.7,354.8 828.1,355.2 828.5,355.6 828.9,356.0 829.3,356.4 829.7,356.8 830.1,357.1 830.5,357.4 830.9,357.7 831.2,358.0 831.6,358.2 832.0,358.4 832.4,358.6 832.8,358.8 833.2,359.0 833.6,359.1 834.0,359.2 834.4,359.3 834.8,359.4 835.2,359.5 835.5,359.5 835.9,359.6 836.3,359.6 836.7,359.7 837.1,359.7 837.5,359.7 837.9,359.7 838.3,359.7 838.7,359.7 839.1,359.7 839.5,359.6 839.8,359.6 840.2,359.6 840.6,359.6 841.0,359.5 841.4,359.5 841.8,359.5 842.2,359.4 842.6,359.4 843.0,359.4 843.4,359.4 843.8,359.3 844.1,359.3 844.5,359.3 844.9,359.3 845.3,359.3 845.7,359.3 846.1,359.3 846.5,359.3 846.9,359.3 847.3,359.3 847.7,359.3 848.0,359.3 848.4,359.3 848.8,359.3 849.2,359.3 849.6,359.4 850.0,359.4" fill="none" stroke="#2a78d6" stroke-width="2" stroke-linejoin="round" stroke-linecap="round"/>
<text x="190.0" y="392.0" font-size="14.6" text-anchor="middle" fill="#52514e" font-weight="normal">Mask pressed onto the resist:</text>
<text x="190.0" y="408.9" font-size="14.6" text-anchor="middle" fill="#52514e" font-weight="normal">sharp copy, but every contact</text>
<text x="190.0" y="425.8" font-size="14.6" text-anchor="middle" fill="#52514e" font-weight="normal">damages mask and wafer.</text>
<text x="470.0" y="392.0" font-size="14.6" text-anchor="middle" fill="#52514e" font-weight="normal">A gap g protects the mask;</text>
<text x="470.0" y="408.9" font-size="14.6" text-anchor="middle" fill="#52514e" font-weight="normal">diffraction blurs edges</text>
<text x="470.0" y="425.8" font-size="14.6" text-anchor="middle" fill="#52514e" font-weight="normal">over roughly √(λg).</text>
<text x="750.0" y="392.0" font-size="14.6" text-anchor="middle" fill="#52514e" font-weight="normal">A lens images the mask;</text>
<text x="750.0" y="408.9" font-size="14.6" text-anchor="middle" fill="#52514e" font-weight="normal">R = k₁λ/NA, and nothing</text>
<text x="750.0" y="425.8" font-size="14.6" text-anchor="middle" fill="#52514e" font-weight="normal">touches the wafer.</text>
<text x="896.0" y="464.0" font-size="12.3" text-anchor="end" fill="#6b6a66" font-weight="normal">Schematic, not to scale. Dashed: mask pattern; solid: 1D scalar model (arbitrary units).</text>
</svg>
